<?xml version="1.0" encoding="utf-8"?>
<!-- Generator: Adobe Illustrator 21.1.0, SVG Export Plug-In . SVG Version: 6.00 Build 0)  -->
<svg version="1.1" id="Calque_1" xmlns="http://www.w3.org/2000/svg" xmlns:xlink="http://www.w3.org/1999/xlink" x="0px" y="0px"
	 viewBox="0 0 841.9 1190.6" style="enable-background:new 0 0 841.9 1190.6;" xml:space="preserve">
<style type="text/css">
	.st0{stroke:#FFFFFF;stroke-miterlimit:10;}
	.st1{fill:#0000FF;stroke:#FFFFFF;stroke-width:0.5;stroke-linecap:round;stroke-miterlimit:10;}
	.st2{fill:#FF0000;stroke:#FFFFFF;stroke-width:0.5;stroke-linecap:round;stroke-miterlimit:10;}
	.st3{fill:none;stroke:#FFFFFF;stroke-width:0.5;stroke-linecap:round;stroke-miterlimit:10;}
	.st4{fill:#00FF00;stroke:#FFFFFF;stroke-width:0.5;stroke-linecap:round;stroke-miterlimit:10;}
</style>
<rect x="50.4" y="106.7" class="st0" width="701.1" height="991.4"/>
<polygon class="st1" points="581.5,315.7 534.4,356.4 493.3,392 459.1,421.6 420.1,455.3 373.2,495.9 311.1,484.9 261.2,476.1 
	212.1,467.4 167.7,459.5 119.6,451 167.1,410.5 206.6,376.8 241.1,347.4 282.7,311.9 323.8,319.1 368.7,278.7 413.3,286.5 
	462.5,295 512.6,303.7 "/>
<path class="st2" d="M410.5,612.7l-38-107.7l-252.8-44.9l52.6,147.2L228,762.9l59.5,10.5l-11.2-31.4l-33-5.6l-14.9-41.8l-15.1-42.5
	l-0.1-0.2l-14.3-40.2l0,0l-13.2-37l0-0.1l-13.5-37.8l0-0.1l32.9,5.6l33.6,5.7h0l30.2,5.1l32.2,5.5l35.2,6l0.2,0.4l13.3,37.3
	l30.5,5.1l4.9,13.8l8.3,23.2l1.8,5l9.8,27.6l3,8.4l7.7,21.5l7.5,21.2l3.8,10.6l1.9,5.4l9.4,25.7l-0.2,0l-30.6-5.3l-35.2-6l11.4,31.9
	l66.4,11.8h0l29.4,5.2L410.5,612.7z"/>
<polygon class="st3" points="383.6,790.5 351.3,784.8 340,753.1 372.2,758.6 "/>
<polygon class="st3" points="351.3,784.8 320.8,779.4 309.8,747.9 340,753.1 "/>
<polygon class="st3" points="320.8,779.4 287.5,773.5 276.3,742.1 309.8,747.9 "/>
<polygon class="st4" points="588,322.1 694.9,624.9 487.2,804.8 380.3,502.3 "/>
<polyline class="st3" points="133.5,497.9 159.9,502.4 192.8,508.1 226.4,513.8 256.6,519 288.8,524.6 324,530.6 "/>
<polygon class="st3" points="252.1,586 218.6,580.3 205.1,542.5 205.1,542.4 238.6,548.1 238.6,548.1 238.7,548.3 "/>
<polygon class="st3" points="282.3,591 252.1,586 252.1,586 238.7,548.3 238.6,548.1 268.8,553.2 268.9,553.5 "/>
<line class="st3" x1="397.1" y1="575" x2="336.1" y2="564.7"/>
<line class="st3" x1="172.2" y1="536.8" x2="145.6" y2="532.3"/>
<polyline class="st3" points="380.1,607.5 410.5,612.7 410.7,612.7 "/>
<line class="st3" x1="185.7" y1="574.8" x2="159.2" y2="570.3"/>
<line class="st3" x1="423.5" y1="649.6" x2="393.3" y2="644.5"/>
<polyline class="st3" points="198.9,611.8 172.4,607.3 172.3,607.3 "/>
<line class="st3" x1="438.1" y1="690.7" x2="407.9" y2="685.5"/>
<line class="st3" x1="213.3" y1="652.2" x2="187" y2="647.7"/>
<polyline class="st3" points="423.1,728.2 436.1,730.4 452.9,733 "/>
<path class="st3" d="M197.5,689.4"/>
<path class="st3" d="M200.5,689.9"/>
<line class="st3" x1="467.9" y1="775.2" x2="438.2" y2="769.9"/>
<polygon class="st3" points="310,668.8 279.8,663.6 279.7,663.4 265.4,623.2 265.3,623 295.5,628 295.6,628.4 309.9,668.6 "/>
<polygon class="st3" points="325.2,711.3 296.4,706.4 294.9,706.1 291.1,695.5 279.8,663.6 310,668.8 "/>
<polygon class="st3" points="357.3,716.9 325.2,711.3 310,668.8 342.1,674.3 "/>
<polygon class="st3" points="340,753.1 309.8,747.9 294.9,706.1 296.4,706.4 325.2,711.3 "/>
<polygon class="st3" points="372.2,758.6 340,753.1 325.2,711.3 357.3,716.9 "/>
<polygon class="st3" points="407.4,764.6 372.2,758.6 357.3,716.9 392.5,722.9 401.2,747.2 "/>
<polygon class="st3" points="349.6,602.4 314.5,596.5 301.1,559 301,558.7 336.1,564.7 336.3,565.1 "/>
<polyline class="st3" points="310.8,494.1 324,530.6 336.1,564.7 "/>
<line class="st3" x1="418.7" y1="796.7" x2="407.4" y2="764.6"/>
<path class="st3" d="M384.1,791.9"/>
<polygon class="st3" points="314.5,596.5 282.3,591 282.3,591 268.9,553.5 268.8,553.2 301,558.7 301.1,559 "/>
<polyline class="st3" points="275.5,487.8 288.8,524.5 288.8,524.6 301,558.7 "/>
<path class="st3" d="M428.2,1006.8"/>
<polyline class="st3" points="243.3,482.1 256.6,519 256.6,519 268.8,553.2 "/>
<line class="st3" x1="351.3" y1="784.8" x2="351.3" y2="784.8"/>
<path class="st3" d="M425,1077.6"/>
<polyline class="st3" points="213.3,476.9 226.4,513.8 226.4,513.8 238.6,548.1 "/>
<polyline class="st3" points="205.1,542.4 192.8,508.1 192.8,508 179.6,470.9 "/>
<polygon class="st3" points="218.6,580.3 185.7,574.8 185.7,574.7 172.2,536.9 172.2,536.8 205.1,542.4 205.1,542.5 "/>
<polyline class="st3" points="146.5,465 159.9,502.3 159.9,502.4 172.2,536.8 "/>
<polygon class="st3" points="231.8,617.3 198.9,611.8 185.7,574.8 218.6,580.3 218.6,580.4 "/>
<polygon class="st3" points="265.3,623 231.8,617.3 218.6,580.4 218.6,580.3 252.1,586 252.1,586 252.2,586.2 "/>
<polygon class="st3" points="246.2,657.8 213.3,652.2 213.2,652 198.9,611.8 198.9,611.8 231.8,617.3 231.9,617.5 246.2,657.7 "/>
<polygon class="st3" points="279.8,663.6 246.2,657.8 246.2,657.7 231.9,617.5 231.8,617.3 265.3,623 265.4,623.2 279.7,663.4 "/>
<polygon class="st3" points="261.4,700.4 228.4,694.7 213.3,652.2 246.2,657.8 "/>
<polygon class="st3" points="295.5,628 265.3,623 252.2,586.2 252.1,586 282.3,591 282.3,591 282.4,591.4 "/>
<polygon class="st3" points="327.6,633.5 295.5,628 282.4,591.4 282.3,591 314.5,596.5 314.6,596.9 "/>
<polygon class="st3" points="362.8,639.4 327.6,633.5 314.6,596.9 314.5,596.5 349.6,602.4 349.8,603 "/>
<polygon class="st3" points="362.8,639.4 362.8,639.4 349.8,603 349.6,602.4 380.1,607.5 385,621.3 393.3,644.5 "/>
<polyline class="st3" points="366.8,570.3 375.9,595.6 380.1,607.5 "/>
<polygon class="st3" points="342.1,674.3 310,668.8 309.9,668.6 295.6,628.4 295.5,628 327.6,633.5 327.8,634 342.1,674.1 
	342.1,674.2 "/>
<polygon class="st3" points="377.3,680.3 342.1,674.3 342.1,674.2 342.1,674.1 327.8,634 327.6,633.5 362.8,639.4 362.8,639.4 
	363,640 377.3,680.2 "/>
<polygon class="st3" points="407.9,685.5 377.3,680.3 377.3,680.2 363,640 362.8,639.4 393.3,644.5 395.1,649.5 404.9,677.1 "/>
<polygon class="st3" points="392.5,722.9 357.3,716.9 342.1,674.3 377.3,680.3 "/>
<polygon class="st3" points="423.1,728.2 423.1,728.2 392.5,722.9 377.3,680.3 407.9,685.5 415.6,707 "/>
<polygon class="st3" points="438.2,769.9 438,769.9 407.4,764.6 401.2,747.2 392.5,722.9 423.1,728.2 423.1,728.2 426.9,738.8 
	428.8,744.2 "/>
<polyline class="st3" points="438.2,769.9 450,802.3 450,802.3 450,802.4 "/>
<path class="st3" d="M569.4,1145.1"/>
<polyline class="st3" points="217,732 243.3,736.5 253.9,767.4 "/>
<polygon class="st3" points="243.3,736.5 217,732 202.1,690.2 228.4,694.7 "/>
<polygon class="st3" points="276.3,742.1 243.3,736.5 228.4,694.7 261.4,700.4 "/>
<line class="st3" x1="287.5" y1="773.5" x2="287.5" y2="773.5"/>
<polygon class="st3" points="294.9,706.1 261.4,700.4 246.2,657.8 279.8,663.6 291.1,695.5 "/>
<polygon class="st3" points="309.8,747.9 276.3,742.1 261.4,700.4 294.9,706.1 "/>
<line class="st3" x1="320.8" y1="779.4" x2="320.8" y2="779.4"/>
<line class="st3" x1="405.3" y1="572.4" x2="613.2" y2="394"/>
<line class="st3" x1="418.2" y1="610.2" x2="626.5" y2="430.9"/>
<line class="st3" x1="431.2" y1="645.5" x2="639.3" y2="467.3"/>
<line class="st3" x1="445.3" y1="686.5" x2="653.6" y2="508.1"/>
<line class="st3" x1="461.1" y1="730.5" x2="668.9" y2="552.4"/>
<line class="st3" x1="476.1" y1="772.6" x2="683.8" y2="594.2"/>
<line class="st3" x1="427.9" y1="461.1" x2="538.5" y2="760.6"/>
<line class="st3" x1="455" y1="437.7" x2="565.8" y2="736.9"/>
<line class="st3" x1="479.4" y1="416.4" x2="590.2" y2="715.6"/>
<line class="st3" x1="505.7" y1="393.7" x2="616.7" y2="692.7"/>
<line class="st3" x1="531.1" y1="371.8" x2="641.9" y2="671.2"/>
<line class="st3" x1="559.3" y1="347.3" x2="670.1" y2="646.3"/>
<line class="st3" x1="426.5" y1="554.4" x2="513.1" y2="782.4"/>
<line class="st3" x1="439.7" y1="492.8" x2="600.4" y2="358.9"/>
<line class="st3" x1="312.1" y1="485.1" x2="512.6" y2="303.7"/>
<line class="st3" x1="262" y1="476.3" x2="462.5" y2="295"/>
<line class="st3" x1="212.9" y1="467.6" x2="413.3" y2="286.5"/>
<polyline class="st3" points="368.7,278.7 369.3,278.7 324.5,319.1 284.8,355 251.8,384.7 214.2,418.6 168.9,459.5 168.9,459.5 "/>
<line class="st3" x1="420.1" y1="455.3" x2="167.1" y2="410.5"/>
<line class="st3" x1="459.1" y1="421.6" x2="206.6" y2="376.8"/>
<line class="st3" x1="493.3" y1="392" x2="241.1" y2="347.4"/>
<polyline class="st3" points="282.7,311.9 283.6,311.9 324.5,319.1 368.8,327 417.8,335.7 467.6,344.5 534.6,356.4 "/>
</svg>
