<?xml version="1.0" encoding="utf-8"?>
<!-- Generator: Adobe Illustrator 21.1.0, SVG Export Plug-In . SVG Version: 6.00 Build 0)  -->
<svg version="1.1" id="Calque_1" xmlns="http://www.w3.org/2000/svg" xmlns:xlink="http://www.w3.org/1999/xlink" x="0px" y="0px"
	 viewBox="0 0 841.9 1190.6" style="enable-background:new 0 0 841.9 1190.6;" xml:space="preserve">
<style type="text/css">
	.st0{fill:#0000FF;}
	.st1{fill:#FF0000;}
	.st2{fill:#00FF00;}
	.st3{fill:none;stroke:#FFFFFF;stroke-miterlimit:10;}
</style>
<polygon class="st0" points="608.1,396.7 561,437.4 519.9,473 485.7,502.6 446.7,536.3 399.8,576.9 337.7,565.9 287.8,557.1 
	238.7,548.4 194.3,540.5 146.2,532 193.7,491.5 233.2,457.8 267.7,428.4 309.3,392.9 350.4,400.1 395.3,359.7 439.9,367.5 
	489.1,376 539.2,384.7 "/>
<polygon class="st1" points="146.3,541.1 254.6,843.9 506,888.5 399.1,586 "/>
<polygon class="st2" points="614.6,403.1 721.5,705.9 513.8,885.8 406.9,583.3 "/>
<line class="st3" x1="154.8" y1="577.9" x2="350.6" y2="611.6"/>
<line class="st3" x1="167.1" y1="612.4" x2="426" y2="656.2"/>
<line class="st3" x1="180.2" y1="650.2" x2="439.7" y2="694.2"/>
<line class="st3" x1="194" y1="687.4" x2="452.5" y2="731"/>
<line class="st3" x1="208.8" y1="727.6" x2="466.5" y2="771.9"/>
<polyline class="st3" points="480.9,814.3 462.7,811.4 449.7,809.2 449.7,809.2 419.1,803.9 383.9,797.9 351.8,792.3 323,787.4 
	321.5,787.1 288,781.4 255,775.7 "/>
<line class="st3" x1="227.1" y1="770.9" x2="224.1" y2="770.4"/>
<line class="st3" x1="497.7" y1="856.7" x2="464.6" y2="850.9"/>
<polyline class="st3" points="464.6,850.9 398.8,839.6 398.8,839.6 366.6,834.1 336.4,828.9 "/>
<line class="st3" x1="242.1" y1="812.7" x2="238.5" y2="812"/>
<polyline class="st3" points="337.1,574.3 350.6,611.6 362.9,646.1 376.4,684 389.6,721 403.9,761.2 419.1,803.9 427.8,828.2 
	449.3,887.8 "/>
<line class="st3" x1="454" y1="901.7" x2="445.9" y2="879.1"/>
<line class="st3" x1="433.7" y1="937.4" x2="410.7" y2="872.9"/>
<polyline class="st3" points="412,876.6 398.8,839.6 398.8,839.6 383.9,797.9 368.7,755.2 368.7,755.1 354.4,715 341.2,677.9 
	327.7,640 315.4,605.5 301.4,566.7 "/>
<line class="st3" x1="428.2" y1="1006.8" x2="378.4" y2="867.2"/>
<polyline class="st3" points="380.4,872.8 366.6,834.1 351.8,792.3 336.5,749.6 322.2,709.4 309,672.4 295.5,634.5 283.2,600 
	269.3,561.5 "/>
<line class="st3" x1="425" y1="1077.6" x2="348.1" y2="861.8"/>
<polyline class="st3" points="336.4,828.9 321.5,787.1 317.7,776.5 317.7,776.5 317.7,776.5 306.3,744.4 292,704.2 278.8,667.2 
	265.3,629.3 253,594.8 239.6,557.2 "/>
<polyline class="st3" points="206,551.5 219.4,589 231.7,623.5 245.2,661.4 258.5,698.5 272.8,738.7 288,781.4 302.9,823.1 "/>
<line class="st3" x1="420.8" y1="1154" x2="314.6" y2="855.9"/>
<polyline class="st3" points="255,775.7 239.8,733 225.5,692.8 212.3,655.7 198.8,617.9 186.5,583.3 172.5,544.3 "/>
<line class="st3" x1="381" y1="1145.1" x2="280.9" y2="850"/>
<polyline class="st3" points="393.4,651.3 402.5,676.6 402.5,676.6 411.6,702.3 421.7,730.5 431.5,758.1 442.2,788 453.5,819.8 
	453.5,819.8 455.4,825.2 479.3,890.8 "/>
<line class="st3" x1="569.4" y1="1145.1" x2="476.5" y2="884.5"/>
<polygon class="st3" points="280.9,850 253.8,845.2 242.1,812.7 269.9,817.5 "/>
<polygon class="st3" points="269.9,817.5 242.1,812.7 227.1,770.9 255,775.7 "/>
<polygon class="st3" points="314.6,855.9 280.9,850 269.9,817.5 302.9,823.1 "/>
<polygon class="st3" points="348.1,861.8 314.6,855.9 302.9,823.1 336.4,828.9 "/>
<line class="st3" x1="505.3" y1="889.6" x2="476.5" y2="884.5"/>
<line class="st3" x1="431.5" y1="653.6" x2="646.9" y2="468.8"/>
<line class="st3" x1="443.2" y1="692.2" x2="658.6" y2="507.5"/>
<line class="st3" x1="456.1" y1="728" x2="671.5" y2="543.3"/>
<line class="st3" x1="470.2" y1="769" x2="685.5" y2="584.3"/>
<line class="st3" x1="486" y1="813" x2="701.4" y2="628.3"/>
<line class="st3" x1="500.7" y1="855.2" x2="716" y2="670.5"/>
<line class="st3" x1="454" y1="540.9" x2="571.8" y2="859.2"/>
<line class="st3" x1="481.6" y1="518.7" x2="599.4" y2="836.9"/>
<line class="st3" x1="505.6" y1="495.8" x2="623.4" y2="814.1"/>
<line class="st3" x1="532" y1="472.9" x2="649.8" y2="791.2"/>
<line class="st3" x1="557.2" y1="451.2" x2="675" y2="769.5"/>
<line class="st3" x1="585.8" y1="427" x2="703.6" y2="745.3"/>
<line class="st3" x1="452.8" y1="634.7" x2="549" y2="887.9"/>
<line class="st3" x1="466.3" y1="573.8" x2="643.3" y2="426.6"/>
<line class="st3" x1="337.2" y1="567.1" x2="551" y2="374.3"/>
<line class="st3" x1="288.2" y1="557.6" x2="502" y2="364.7"/>
<line class="st3" x1="236.6" y1="551.2" x2="450.4" y2="358.4"/>
<polyline class="st3" points="405.9,350.7 395.9,359.7 351.1,400.1 311.4,436 278.4,465.7 240.8,499.6 195.5,540.5 192.1,543.6 "/>
<line class="st3" x1="450.8" y1="536.9" x2="178.4" y2="488.6"/>
<line class="st3" x1="489.6" y1="503.2" x2="217.2" y2="454.8"/>
<line class="st3" x1="525.3" y1="473.9" x2="252.9" y2="425.6"/>
<polyline class="st3" points="293.6,389.9 310.2,392.9 351.1,400.1 395.4,408 444.4,416.7 494.2,425.5 561.2,437.4 566,438.3 "/>
</svg>
